<svg width="189" height="48" viewBox="0 0 189 48" fill="none" xmlns="http://www.w3.org/2000/svg">
<path fill-rule="evenodd" clip-rule="evenodd" d="M165.016 6.36074H164.743V6.63334H164.471V6.90595H164.198V7.17855H163.926V7.45115H163.38H163.108V7.17855L163.38 6.90595V6.63334V6.36074H163.653V6.08814H163.926V5.81553L164.198 5.54293L164.471 5.27033V4.99773C164.471 4.99773 164.743 4.81599 165.289 4.45252C165.652 3.90731 166.561 3.27124 168.015 2.5443C169.468 1.81735 171.013 1.45388 172.649 1.45388C174.466 1.45388 175.92 1.72649 177.01 2.27169C178.283 2.8169 179.646 3.63471 181.1 4.72512C182.372 5.81553 183.644 7.17855 184.916 8.81417C186.188 10.4498 187.097 12.1763 187.642 13.9936C188.187 15.9927 188.46 17.9918 188.46 19.9909C188.46 22.1717 188.187 24.1708 187.642 25.9882C187.097 27.9873 186.097 29.9864 184.643 31.9854C183.553 33.9845 182.281 35.6201 180.827 36.8923C179.373 38.1644 177.465 39.4366 175.102 40.7087C172.74 42.1626 170.014 43.253 166.924 43.98C163.835 45.0704 160.473 45.7973 156.838 46.1608C153.385 46.5243 149.387 46.5243 144.843 46.1608C140.118 46.1608 135.211 45.6156 130.123 44.5252C125.034 43.4348 120.309 42.1626 115.947 40.7087C111.586 39.2549 107.769 37.6192 104.498 35.8019C101.408 33.9845 99.0459 32.3489 97.4103 30.895C95.5929 29.4411 94.5025 28.6233 94.1391 28.4416C93.7756 28.2599 93.2304 28.4416 92.5034 28.9868C91.9582 29.532 90.5043 30.7133 88.1418 32.5306C85.7792 34.348 82.9623 35.9836 79.6911 37.4375C76.4198 38.8914 72.5125 40.3453 67.9691 41.7992C63.6075 43.253 58.7006 44.4343 53.2485 45.343C47.7965 46.2517 43.2531 46.7969 39.6184 46.9786C36.1654 47.1603 33.6211 47.0695 31.9855 46.706C30.3498 46.706 27.8055 46.2517 24.3526 45.343C20.7179 44.4343 17.6284 43.4348 15.0841 42.3444C12.7215 41.2539 10.7224 40.1635 9.08678 39.0731C7.45116 37.6192 5.99728 36.0745 4.72513 34.4389C3.27124 32.6215 2.18083 30.6224 1.45388 28.4416C0.726942 26.2608 0.272603 23.9891 0.0908678 21.6265C-0.0908678 19.4457 0 17.6283 0.363471 16.1745C0.726942 14.9023 1.27215 13.3576 1.99909 11.5402C3.08951 9.72285 3.90732 8.54157 4.45252 7.99636C5.17947 7.26942 5.54294 6.81508 5.54294 6.63334C5.54294 6.45161 5.72467 6.26987 6.08814 6.08814C6.45161 5.9064 7.45116 5.3612 9.08678 4.45252C10.7224 3.54384 12.5398 3.0895 14.5388 3.0895C16.7197 3.0895 18.537 3.36211 19.9909 3.90731L22.1717 4.72512V4.99773H22.4443V5.27033H22.717L22.9896 5.54293L23.2622 5.81553H23.5348V6.08814H23.8074V6.36074V6.63334H23.2622L22.4443 6.36074H22.1717H21.8991V6.08814H21.6265V5.81553H20.5361C19.9909 5.45206 18.9914 5.3612 17.5375 5.54293C16.0836 5.72467 14.8115 6.17901 13.721 6.90595C12.8124 7.81462 11.9946 8.90504 11.2676 10.1772C10.5407 11.4493 10.1772 13.2667 10.1772 15.6292C10.1772 18.1735 10.5407 19.9 11.2676 20.8087C11.8128 21.7174 12.5398 22.4443 13.4484 22.9895C14.3571 23.5347 15.6293 23.8073 17.2649 23.8073C19.0822 23.8073 21.2631 23.2621 23.8074 22.1717C26.5334 21.0813 29.9864 19.3548 34.1663 16.9923C38.528 14.6297 42.7987 12.1763 46.9787 9.63198C51.3403 7.08768 55.0659 5.08859 58.1554 3.63471C61.4266 2.18083 64.1527 1.27215 66.3335 0.908677C68.6961 0.181735 71.3312 -0.0908677 74.239 0.0908677C77.1468 0.272603 79.9637 0.726942 82.6897 1.45388C85.4157 2.5443 87.7783 3.72558 89.7774 4.99773C91.9582 6.26987 93.1395 6.99682 93.3212 7.17855C93.503 7.36029 94.5934 6.72421 96.5925 5.27033C98.5916 3.81644 100.954 2.72603 103.68 1.99909C106.406 0.908677 108.405 0.363471 109.677 0.363471C110.95 0 113.221 -0.0908677 116.493 0.0908677C119.764 0.272603 122.672 0.636074 125.216 1.18128C127.578 1.72649 130.486 2.90777 133.939 4.72512C137.392 6.54248 142.39 9.63198 148.932 13.9936C155.475 18.3553 159.927 20.8996 162.29 21.6265C164.471 22.7169 166.561 23.2621 168.56 23.2621C170.559 23.2621 172.285 22.8987 173.739 22.1717C175.193 21.4448 176.284 20.7178 177.01 19.9909C177.737 19.0822 178.101 17.5375 178.101 15.3566C178.101 13.1758 177.737 11.4493 177.01 10.1772C176.284 8.90504 175.466 7.81462 174.557 6.90595C173.648 6.17901 172.831 5.6338 172.104 5.27033C171.195 4.90686 170.105 4.72512 168.832 4.72512C167.742 4.72512 166.833 4.99773 166.106 5.54293C165.561 6.08814 165.198 6.36074 165.016 6.36074Z" fill="#0B090A"/>
</svg>
