<svg width="64" height="52" viewBox="0 0 64 52" fill="none" xmlns="http://www.w3.org/2000/svg">
<path d="M0.107467 23.2248C-0.534669 30.9304 1.71281 37.3518 6.52883 43.131C11.3448 48.9103 17.7662 51.4788 25.4718 51.4788H57.5786C59.184 51.4788 60.7893 50.8367 62.0736 49.5524C63.3579 48.2681 64 46.6628 64 45.0574V42.4889C64 40.5625 63.6789 38.315 63.3579 35.4254H37.0303C33.8196 35.4254 31.2511 34.1411 29.0036 31.8937C26.7561 29.6462 25.4718 26.7566 25.4718 23.867C25.4718 18.7299 27.7193 15.1981 32.5353 13.2717L47.9466 6.52928C42.4884 2.67646 36.0671 0.428988 28.6825 0.10792C21.619 -0.534216 15.1977 1.71326 9.41844 6.20821C3.63922 10.7032 0.749603 16.1613 0.107467 23.2248ZM31.8932 23.867C31.8932 25.1512 32.5353 26.4355 33.4985 27.3987C34.4617 28.3619 35.746 29.004 37.0303 29.004H62.0736C60.1472 21.9405 57.2576 16.1613 53.0837 11.6664L35.1039 19.0509C32.8564 19.6931 31.8932 21.2984 31.8932 23.867V23.867Z" fill="#BA181B"/>
</svg>
