<svg width="53" height="52" viewBox="0 0 53 52" fill="none" xmlns="http://www.w3.org/2000/svg">
<path fill-rule="evenodd" clip-rule="evenodd" d="M37.2461 33.536L51.2338 47.5237C51.7255 48.0157 52.0015 48.6828 52.0013 49.3784C52.0011 50.0739 51.7245 50.7409 51.2325 51.2325C50.7405 51.7242 50.0734 52.0002 49.3778 52C48.6823 51.9998 48.0154 51.7232 47.5237 51.2312L33.536 37.2435C29.3546 40.4822 24.0963 42.0063 18.8311 41.5058C13.5658 41.0052 8.68895 38.5176 5.19268 34.549C1.6964 30.5804 -0.156686 25.4289 0.0103902 20.1425C0.177466 14.8561 2.35216 9.83196 6.09206 6.09206C9.83196 2.35216 14.8561 0.177466 20.1425 0.0103902C25.4289 -0.156686 30.5804 1.6964 34.549 5.19268C38.5176 8.68895 41.0052 13.5658 41.5057 18.8311C42.0063 24.0963 40.4822 29.3546 37.2435 33.536H37.2461ZM20.8015 36.3985C24.9388 36.3985 28.9066 34.755 31.8321 31.8295C34.7576 28.904 36.4011 24.9362 36.4011 20.7989C36.4011 16.6616 34.7576 12.6938 31.8321 9.76826C28.9066 6.84275 24.9388 5.19922 20.8015 5.19922C16.6642 5.19922 12.6964 6.84275 9.77086 9.76826C6.84535 12.6938 5.20182 16.6616 5.20182 20.7989C5.20182 24.9362 6.84535 28.904 9.77086 31.8295C12.6964 34.755 16.6642 36.3985 20.8015 36.3985V36.3985Z" fill="#D3D3D3"/>
</svg>
