<svg width="880" height="708" viewBox="0 0 880 708" fill="none" xmlns="http://www.w3.org/2000/svg">
<path d="M1.47767 319.341C-7.3517 425.294 23.5511 513.587 89.7714 593.052C155.992 672.516 244.285 707.834 350.238 707.834H791.706C813.78 707.834 835.853 699.004 853.512 681.345C871.171 663.687 880 641.613 880 619.54V584.222C880 557.734 875.585 526.831 871.171 487.099H509.166C465.02 487.099 429.702 469.441 398.799 438.538C367.897 407.635 350.238 367.903 350.238 328.171C350.238 257.536 381.141 208.974 447.361 182.486L659.266 89.7776C584.216 36.8014 495.922 5.89859 394.385 1.4839C297.262 -7.34547 208.968 23.5573 129.504 85.3629C50.0392 147.169 10.307 222.218 1.47767 319.341ZM438.531 328.171C438.531 345.829 447.361 363.488 460.605 376.732C473.849 389.976 491.508 398.806 509.166 398.806H853.512C827.024 301.683 787.292 222.218 729.901 160.413L482.678 261.95C451.776 270.78 438.531 292.853 438.531 328.171Z" fill="#F5F3F4"/>
</svg>
