<svg width="611" height="920" viewBox="0 0 611 920" fill="none" xmlns="http://www.w3.org/2000/svg">
<path d="M40 261.013C40 261.013 43.9776 169.858 132.646 96.7691C185.294 53.3741 248.522 40.8058 305.176 40.0324C356.913 39.3971 403.153 48.1534 430.803 61.6332C478.066 84.7809 570.352 141.131 570.352 261.013C570.352 387.165 489.75 444.343 398.126 507.35C306.502 570.357 283.078 632.149 283.078 702.973" stroke="#F5F3F4" stroke-width="80" stroke-miterlimit="10" stroke-linecap="round"/>
<path d="M282.722 920C318.745 920 347.947 890.798 347.947 854.775C347.947 818.753 318.745 789.55 282.722 789.55C246.699 789.55 217.497 818.753 217.497 854.775C217.497 890.798 246.699 920 282.722 920Z" fill="#F5F3F4"/>
</svg>
